<?xml version="1.0" encoding="UTF-8"?>
<svg version="1.1" viewBox="0 0 1084 1084" width="271" height="271" xmlns="http://www.w3.org/2000/svg">
<path transform="translate(475,29)" d="m0 0h156l6 4 10 9 13 17 9 12 5 10 30 14 28 14 20 12 57 38 17 12 18 12 16 11 34 24 18 13 19 14 14 10 18 13 13 9 38 28 32 24 2 2-1 5-9 11-9 10-10 13-9 10-8 10-12 14-11 14-13 16-9 11-8 10-10 12-7 9-11 13-7 8-2 2-7-1-18-8-15-7-7-2-1 39v302l-1 90-1 1-241 1h-376l-2-5-1-406-1-13-4-6-6 1-15 6-17 8-6-1-11-13-8-10-13-16-9-11-13-16-11-13-8-10-11-13-11-14-12-14-11-14-13-16-2-3 1-5 12-10 14-10 13-10 14-10 18-13 14-10 19-14 14-10 18-13 17-12 20-15 23-16 19-13 34-23 18-13 17-11 20-12 14-8 32-16 22-10 6-11 11-14 10-13 6-7zm3 5-6 3-9 9-11 14-6 9 1 3 3 1 108 1h85l13 1 5-3-1-5-11-14-12-13-7-5-8-1zm16 44-31 1-14 3-18 6-14 6-15 7-27 14-19 11-22 14-24 16-15 12 2 6 12 25 5 10 8 3 7 1h459l5-2 17-37 1-7-10-8-18-11-17-11-16-10-15-9-14-8-23-11-24-11-18-6-13-3-44-1zm323 94 2 1-1 3-2-1-1 4-4 2-9 17-7 17-6 24-2 11-1 11v34l3 19 4 16 6 16 8 16 10 16 10 14 9 11 14 17 8 14 3 11 2 23 2 6 11 7 15 7 9 3 11 1 6-4 12-13 20-26 9-11 11-13 11-14 14-17 9-11 11-13 11-14 10-13 4-9-2-4-7-7-16-12-18-13-16-11-20-15-38-28-42-30-16-11-18-13-17-12-9-6zm-530 2-16 9-15 11-16 11-14 10-17 12-20 14-18 13-17 12-15 11-20 15-19 14-17 12-9 7-8 7 1 5 8 10 14 17 13 17 12 14 9 11 11 13 11 14 12 14 13 16 11 14 9 11 5 5 9-1 18-7 17-9 3-3 4-30 4-13 7-11 9-10 9-11 10-13 10-15 13-25 7-21 5-25 1-8v-31l-4-26-6-20-6-15-8-16-8-9zm59 42-15 2-7 4-4 5 2 14 3 22v31l-3 20-6 20-6 15-8 16-9 14-12 16-14 17-9 11-6 12-3 17-1 9v430h68l3 4 2-4 6-2 1 4h4l1-4h4l1 4 6-2v-2l3 1 2 4-1 1h-8l-7 1-22 2 1 3-4 1-7 2v2l12 2 14 1 40 1h428l49-1 14-1v-11l-25-1h-15l1-4 4-1 2 1h6l4-1 5 1h10l9-3 1-57v-349l-2-31-3-16-6-12-13-16-11-13-10-14-9-14-8-15-9-23-6-23-1-8v-38l3-20v-8l-3-7-4-5-4-2-7-1-51-1h-47l-84 1h-130l-38-1zm-97 680v8h1v-8zm12 1-1 2h2zm2 0m2 1 2 2v-2zm-10 2m12 0 1 4 1-3zm-10 2-1 2h4v-2zm4 2m5 0 1 2zm26 2v1h6v-1z" fill="#9D9D9D"/>
<path transform="translate(1041,328)" d="m0 0 4 2 2 3-3 7-9 10-11 14-9 10-11 14-10 11-11 14-13 16-8 10-13 16-10 12-7 9-11 13-7 8-2 2-7-1-18-8-15-7-7-2-1 39v302l-1 90-1 1-241 1h-376l-2-5v-399h1l1 388 1 10 1 1-1-194v-227l1-27h1v430l68-1 3 3 2-3 6-1 1 3 4 1 1-4h4l1 3 5-1 1-2 4 1 2 5-2 1h-8l-7 1-22 1 1 2h5l-2 2-10 2h-4v2l26 2 40 1h428l63-1v-11h-25l-15-1 1-5 4-1 2 1h6l4-1 5 1h10l4-2h5v-405l1-9v-13l-1-11 2-2 3 19 2 6 14 8 14 6 6 2 11 1 6-4 11-12 20-26 9-11 11-13 11-14 14-17 9-11 11-13 11-14 10-13 5-5 3-4zm-792 568v8h1v-8zm12 1-1 2h2zm2 0m2 1 2 2v-2zm-10 2m12 0 1 4 1-3zm-10 2-1 2h4v-2zm4 2m5 0 1 2zm26 2v1h6v-1z" fill="#bbb"/>
<path transform="translate(431,84)" d="m0 0 3 1-1 3-16 7-15 7-27 14-19 11-22 14-24 16-10 8-7 2v4l-7 3-3 3-13 8-20 14-14 10-17 12-20 14-17 12-18 13-14 10-15 11-21 16-14 10-17 12-9 7-7 6 1 5 8 10 14 17 13 17 12 14 9 11 11 13 11 14 12 14 13 16 11 14 9 11 4 4 9-1 18-7 17-9 2-2 4-30 1-4 2-1 2-4 1 2-3 25-1 34v220l1 185-1 9-2-1-1-17-1-381-1-7-1-13-4-6-6 1-15 6-17 8-6-1-11-13-8-10-13-16-9-11-13-16-11-13-8-10-11-13-11-14-12-14-11-14-13-16-2-3 1-5 12-10 14-10 13-10 14-10 18-13 14-10 19-14 14-10 18-13 17-12 20-15 23-16 19-13 34-23 8-6 6-2 22-14 15-10 16-9 12-6 15-7 16-8z" fill="#9B9B9B"/>
<path transform="translate(293,166)" d="m0 0 4 1-1 3 11 22 7 16 8 3 7 1 461 1 3 2-1 3h-2v-2l-4 1h-117l-84 1h-130l-38-1h-71l-15 2-7 4-3 4 2 14 3 22v31l-3 20-6 20-6 15-8 16-9 14-12 16-14 17-9 11-6 12-3 17-1 9h-1v-11l2-15-2 4-1-3 4-9 6-9 13-15 11-14 7-10 8-13 11-21 7-21 5-25 1-8v-31l-4-26-6-20-6-15-8-16-7-8-4-1 4-3h4l-1-4z" fill="#A4A4A4"/>
<path transform="translate(247,461)" d="m0 0h1v430l68-1 3 3 2-3 6-1 1 3 4 1 1-4h4l1 3 5-1 1-2 4 1 2 5-2 1h-8l-7 1-22 1 1 2h5l-2 2-10 2h-4v2l26 2v1l-73 1-7-2-1-193v-227zm2 435v8h1v-8zm12 1-1 2h2zm2 0m2 1 2 2v-2zm-10 2m12 0 1 4 1-3zm-10 2-1 2h4v-2zm4 2m5 0 1 2zm26 2v1h6v-1z" fill="#FAFAFA"/>
<path transform="translate(446,67)" d="m0 0 1 4 3 1 108 1h85l13 1 4-2 2-3 6 7v2h2l-1 3-11-3h-5l4 2 11 3 15 7 29 14 3 3-9-3-27-13-16-6-20-5-44-1h-105l-31 1-14 3-13 4h-3v-2l-6 2-23 11-15 7-21 11-13 8-12 8-11 7-9 6-3-1 14-10 24-15 21-12 32-16 22-10 1-2 4-1 3-5z" fill="#8A8A8A"/>
<path transform="translate(364,213)" d="m0 0h426l3 2-1 3h-2v-2l-4 1h-117l-84 1h-130l-92-3z" fill="#AFAFAF"/>
<path transform="translate(475,29)" d="m0 0h156l6 4 10 9 13 17 9 12 5 10 8 4v2l6 2 25 12 22 12-3 3-9-5-7-2-4-4-22-11-18-8-11-4-10-3 2-2 9 1 7 2 1-2h-2l-6-8-5-5-8-11-7-7-5-6-7-5-8-1h-144l-6 3-8 8-11 14-5 7-8 8-1 5-4-1 2-6 9-12 14-18 6-7z" fill="#B2B2B2"/>
<path transform="translate(1041,328)" d="m0 0 4 2 2 3-3 7-9 10-11 14-9 10-11 14-10 11-11 14-13 16-8 10-13 16-10 12-7 9-11 13-7 8-2 2-7-1-18-8-15-7-7-2-1 39-1 99-3 1-1-136 1-9v-13l-1-11 2-2 3 19 2 6 14 8 14 6 6 2 11 1 6-4 11-12 20-26 9-11 11-13 11-14 14-17 9-11 11-13 11-14 10-13 5-5 3-4z" fill="#828282"/>
<path transform="translate(859,488)" d="m0 0h1v132l3-1 1 203-1 90-1 1h-41l-1-2 24-3h14v-11h-25l-15-1 1-5 4-1 2 1h6l4-1 5 1h10l4-2h5z" fill="#A0A0A0"/>
<path transform="translate(250,434)" d="m0 0 1 2-3 25-1 34v220l1 185-1 9-2-1-1-17-1-381-1-7-1-13-4-6-10 1 2-1 1-2 2-1 2 1 2-4 7-3 1-6 1-26 1-4 2-1z" fill="#868686"/>
<path transform="translate(431,84)" d="m0 0 3 1-1 3-16 7-15 7-27 14-19 11-22 14-24 16-10 8-7 2v4l-7 3-3 3-13 8-20 14-14 10-17 12-11 8-1-2-4 2-3-1 18-13 16-12 23-16 19-13 34-23 8-6 6-2 22-14 15-10 16-9 12-6 15-7 16-8z" fill="#B1B1B1"/>
<path transform="translate(243,510)" d="m0 0h1l1 388 1 10 15 1h106l24 1v1l62 1v1l-143 1h-65l-2-5z" fill="#C9C9C9"/>
<path transform="translate(90,366)" d="m0 0 5 5 13 16 12 14 9 11 14 17 9 11 12 14 10 13 13 16 7 8 1 1 9-1 18-7 17-9 2-2 3-24h1v20l-2 7-8 4-1 2-5 2-3 3-12 5-15 7-6-1-11-13-8-10-13-16-9-11-13-16-11-13-8-10-11-13-11-14-9-11 3-1z" fill="#A1A1A1"/>
<path transform="translate(861,778)" d="m0 0h1v52l1 82-1 1h-41l-1-2 24-3h14v-11h-25l-15-1 1-5 4-1 2 1h6l4-1 5 1h10l4-2h5v-57l1-53z" fill="#696969"/>
<path transform="translate(486,888)" d="m0 0 3 1v3l5-1 1-2h4l2 4 4-2 1-2h5v3l5-1 1-3 4 1v3l7-1 1-3 4 1v2l5 2 2-5 3 1 1 4h2l3-4h6v4h5l1-5 8 4 2-4 3 1 2 4 2 1v-2l3-1 1-2 5 1v4l6-2 2-4 4 4h6v-4l4 1 3 5v2l-8 1-4-1-10 1h-74l-23-1h-22l-1-2 3-5h6l1 2 4 1z" fill="#ECECEC"/>
<path transform="translate(837,182)" d="m0 0 6 2v2l4 2 11 7 33 24 16 11 10 7 14 10 8 6 12 8v2l5 2 14 10 13 9 4 4 18 13 17 12 6 4v2h-5l-13-10-34-24-16-12-38-28-42-30-16-11-18-13-9-7z" fill="#8B8B8B"/>
<path transform="translate(835,178)" d="m0 0 11 6 11 8 20 14 17 12 18 13 19 14 14 10 18 13 13 9 38 28 32 24 2 2-1 5-1-4-5-4 2 6-7 9-1-2 3-9-13-13h3l-4-4-11-7-8-6-19-14-3-2v-2l-5-2-13-10-6-4-8-5v-2l-4-2-9-6-11-8-40-28-22-16-9-6-10-7-3-2v-2l-7-2-2-3z" fill="#FEFEFE"/>
<path transform="translate(682,86)" d="m0 0 5 1 29 14 23 12 24 15 40 27-1 4 6 2 7 6v3l-5 4v-7l-11-8-25-16-18-11-14-9-21-12 2-1 10 5 1-2-35-18-17-8z" fill="#C0C0C0"/>
<path transform="translate(391,910)" d="m0 0h180l82 1v1l-50 1h-150l-63-1z" fill="#717171"/>
<path transform="translate(446,67)" d="m0 0 1 4 3 1 91 1v1l-63 1-17 1-18 4-12 5-17 8-15 7-16 8-22 12-18 12-11 7-9 6-3-1 14-10 24-15 21-12 32-16 22-10 1-2 4-1 3-5z" fill="#FEFEFE"/>
<path transform="translate(860,449)" d="m0 0h1l2 15v155l-3 1-1-136 1-9v-13l-1-11z" fill="#888"/>
<path transform="translate(945,453)" d="m0 0v3l-2 6-10 13-12 14-7 8-2 2-7-1-18-8-15-7-7-2-1 39h-1v-52h1l2 6 14 8 14 6 6 2 11 1 6-4 11-12 10-13z" fill="#7B7B7B"/>
<path transform="translate(795,909)" d="m0 0h38v1l-12 2v1h-158v-1l40-1 5-1z" fill="#B9B9B9"/>
<path transform="translate(654,56)" d="m0 0 3 1 5 5 9 12 3 7 8 4v2l6 2 25 12 22 12-3 3-9-5-7-2-4-4-22-11-18-8-11-4-10-3 2-2 9 1 7 2 1-2h-2l-6-8-5-5-4-6z" fill="#7A7A7A"/>
<path transform="translate(97,304)" d="m0 0 2 1-3 5-19 13-8 8-2 1 1 5 8 10 14 17 2 5 1 2-6-2-13-16-11-14-3-4 1-5 12-10 14-10 6-5z" fill="#909090"/>
<path transform="translate(431,84)" d="m0 0 3 1-1 3-16 7-15 7-27 14-19 11-22 14-8 5h-3l1-3 22-14 15-10 16-9 12-6 15-7 16-8z" fill="#7F7F7F"/>
<path transform="translate(244,449)" d="m0 0h1v20l-2 7-8 4-1 2-5 2-3 3-12 5-15 7-6-1-11-13-6-9 2-2 5 4 8 10 4 4 9-1 18-7 17-9 2-2z" fill="#888"/>
<path transform="translate(835,178)" d="m0 0 11 6 11 8 20 14 17 12 18 13 19 14 14 10 6 5h-3l-10-7-11-8-40-28-22-16-9-6-10-7-3-2v-2l-7-2-2-3z" fill="#FEFEFE"/>
<path transform="translate(486,888)" d="m0 0 3 1v3l5-1 1-2h4l2 4 4-2 1-2h5v3l5-1 1-3 4 1v3l7-1 1-3 4 1v2l3 3-34 1-2 1h-29l-1-2 3-5h6l1 2 4 1z" fill="#FEFEFE"/>
<path transform="translate(475,31)" d="m0 0 7 1-4 3-6 3-8 8-11 14-5 7-8 8-1 5-4-1 2-6 9-12 14-18 6-7 5-2z" fill="#737373"/>
<path transform="translate(837,182)" d="m0 0 6 2v2l4 2 11 7 33 24 16 11 8 6v3l-4-2-17-12-14-10-16-11-18-13-9-7z" fill="#909090"/>
<path transform="translate(845,414)" d="m0 0 5 5 7 11 4 10 2 15v9h-1l-2-13 1 11v13l-1 8h-1l-2-31-3-16-6-12-5-6z" fill="#A5A5A5"/>
<path transform="translate(250,434)" d="m0 0 1 2-3 25-1 27-2 17h-1v-26l-13 6-4-1h2l1-2 2-1 2 1 2-4 7-3 1-6 1-26 1-4 2-1z" fill="#727272"/>
<path transform="translate(241,479)" d="m0 0h3l1 20 2-4v54l-1-4h-2l-1-35-1-7-1-13-5-8z" fill="#888"/>
<path transform="translate(772,213)" d="m0 0h18l3 2-1 3h-2v-2l-4 1-96-1v-2z" fill="#868686"/>
<path transform="translate(90,366)" d="m0 0 5 5 13 16 12 14 8 10-4 3-9-11-14-17-9-11-3-5h3z" fill="#999"/>
<path transform="translate(821,890)" d="m0 0 10 1 4-1 5 1h8l-4 2 16 1v15l-15 1-1-2h14v-11h-25l-15-1 1-5z" fill="#F5F5F5"/>
<path transform="translate(915,237)" d="m0 0 5 2 11 8 8 6 12 8v2l5 2 14 10-3 3-14-10-21-16-17-12z" fill="#8B8B8B"/>
<path transform="translate(275,399)" d="m0 0h2l-2 5-9 10-8 11-5 10-3 17-1 9h-1v-11l2-15-2 4-1-3 4-9 6-9 11-13z" fill="#838383"/>
<path transform="translate(716,216)" d="m0 0h74l-1 7-3 13-2-4-3-7-5-5-9-2-51-1z" fill="#FEFEFE"/>
<path transform="translate(744,123)" d="m0 0 6 2 9 6 12 6 9 6 10 5 3 3 5 4 4 1v3l6 2 7 6v3l-5 4v-7l-11-8-25-16-18-11-12-8z" fill="#FEFEFE"/>
<path transform="translate(601,78)" d="m0 0h44l16 3 14 5 39 19 1 2-9-3-27-13-16-6-20-5-42-1z" fill="#FEFEFE"/>
<path transform="translate(254,189)" d="m0 0 2 1-5 4-14 10-8 6v1l2 1-16 12-8 5v-2l-4 2-3-1 18-13 16-12z" fill="#818181"/>
<path transform="translate(860,449)" d="m0 0h1l2 15v36l-1 79h-1l-1-104v-13l-1-11z" fill="#676767"/>
<path transform="translate(661,69)" d="m0 0 5 5 2 4h2l-1 3-20-5-11-1-80-1v-1h85l13 1 4-2z" fill="#FEFEFE"/>
<path transform="translate(977,417)" d="m0 0v3l-10 13-11 13-7 9-5 5 1-5 2-5 11-13 7-8 5-4z" fill="#7E7E7E"/>
<path transform="translate(1041,328)" d="m0 0 4 2 2 3-3 7-9 10-5 6-4 2-6 7-2-1 10-13 6-8 5-5 3-4zm-24 37 1 3-3 2v-3z" fill="#909090"/>
<path transform="translate(122,284)" d="m0 0h7l-5 5-17 13-8 6h-2v-3l-2-1 19-14z" fill="#9A9A9A"/>
<path transform="translate(441,888)" d="m0 0 6 3 5-1 1-2 4 2v2l7-3h3l2 6-2 1h-28v-4z" fill="#D4D4D4"/>
<path transform="translate(756,888)" d="m0 0 4 1 2 3h2l4-4 9 5 1-4 5 1 1 5-1 1h-29l-1-4 2-1z" fill="#FEFEFE"/>
<path transform="translate(266,184)" d="m0 0h2l-2 4-16 11-14 10-5 3-4-1 8-7 9-6 11-8 5-3 5-2z" fill="#868686"/>
<path transform="translate(455,76)" d="m0 0 4 1 35 1v1l-31 1-14 3-13 4h-3l1-4 9-4z" fill="#A6A6A6"/>
<path transform="translate(378,888)" d="m0 0 3 2v2l3 1 2-4h4l1 2 6 1v-3l5 1 2 2v3l-7 1h-23l-1-4 1-2h3z" fill="#FEFEFE"/>
<path transform="translate(1028,318)" d="m0 0 5 1 13 10 2 2-1 5-1-4-5-4 2 6-7 9-1-2 3-9-13-13z" fill="#A1A1A1"/>
<path transform="translate(790,889)" d="m0 0 3 1v2h2v2h2l2-5 4 2 12-1 2 5-1 1h-29l-2-4h4z" fill="#E8E8E8"/>
<path transform="translate(863,468)" d="m0 0h1l2 6 14 8 4 3-5 1-12-5h-2l-1 39h-1z" fill="#C4C4C4"/>
<path transform="translate(286,167)" d="m0 0 2 1-4 5-1 4-13 8-2 1v-2l-4 3-8 2 4-4 16-11z" fill="#A7A7A7"/>
<path transform="translate(639,36)" d="m0 0 4 2 8 9 9 12-1 2-3-4-4 1-9-10-6-7 1-2 3 2z" fill="#989898"/>
<path transform="translate(204,227)" d="m0 0h3l-2 4-16 11-18 13v-3l6-5 3-3 11-8 5-5z" fill="#727272"/>
<path transform="translate(833,909)" d="m0 0h27l-4 2 6 1v1h-41l-1-2z" fill="#818181"/>
<path transform="translate(822,389)" d="m0 0 5 2 11 13 7 9-1 3-4-2-12-14-5-7z" fill="#A3A3A3"/>
<path transform="translate(704,97)" d="m0 0 19 9 12 7-3 3-9-5-7-2-4-4-10-5z" fill="#8C8C8C"/>
<path transform="translate(517,888)" d="m0 0 4 1v3l7-1 1-3 4 1v2l3 3h-35l1-2 3-1 1-2h5v3l5-1z" fill="#B7B7B7"/>
<path transform="translate(245,469)" d="m0 0h1v30l-1 6h-1v-26l-13 6-4-1h2l1-2 2-1 2 1 2-4 7-3z" fill="#656565"/>
<path transform="translate(992,395)" d="m0 0 1 2-2 4-2 5-10 12-4 2-8 9-2-1 11-13 11-14z" fill="#898989"/>
<path transform="translate(654,56)" d="m0 0 3 1 5 5 9 12 1 5-2 1v-2h-2l-6-8-5-5-4-6z" fill="#909090"/>
<path transform="translate(431,84)" d="m0 0 3 1-1 3-16 7-12 6h-2l1-4 16-8z" fill="#7A7A7A"/>
<path transform="translate(820,168)" d="m0 0 5 2 10 7 1 4v3l-16-11-1 3-2 2-1-1-1 2h-2l2-7 4-3z" fill="#B6B6B6"/>
<path transform="translate(701,888)" d="m0 0 6 1 1 4h5v-5h4l3 5v2l-7 1h-12l-2-1z" fill="#D6D6D6"/>
<path transform="translate(177,474)" d="m0 0 5 3 9 11 4 4 12-1-4 3-7 2-7-6h-3l-10-13z" fill="#8F8F8F"/>
<path transform="translate(734,888)" d="m0 0 5 1 3 3 3 1v-5l5 1 2 6-7 1h-12l-2-2z" fill="#D7D7D7"/>
<path transform="translate(365,888)" d="m0 0 4 1 3 6-9 1h-4-6l-2-1 2-6h6l3 3 2 1z" fill="#D9D9D9"/>
<path transform="translate(859,442)" d="m0 0 3 3 1 10v9h-1l-2-13 1 11v13l-1 8h-1l-2-31v-8z" fill="#C3C3C3"/>
<path transform="translate(255,421)" d="m0 0 3 2-6 15-3 23h-1v-11l2-15-2 4-1-3 4-9z" fill="#B8B8B8"/>
<path transform="translate(419,889)" d="m0 0h2l1 2h7l6-2 2 6-6 1h-5l-2-1-6 1-2-4h2z" fill="#D1D1D1"/>
<path transform="translate(190,235)" d="m0 0 2 1-12 9h-2l-2 4-5 4-1 3-7 5h-2l-1-4 13-10 13-9z" fill="#969696"/>
<path transform="translate(160,453)" d="m0 0 5 5 5 6 5 4 4 5-1 2h-4l-13-16z" fill="#828282"/>
<path transform="translate(786,250)" d="m0 0h1v54h-1l-2-14-1-22 1-5z" fill="#FEFEFE"/>
<path transform="translate(802,156)" d="m0 0 4 1 14 10v4l-4 1-1 3h-4l2-5h2l-1-3-6-5-6-3z" fill="#9A9A9A"/>
<path transform="translate(449,59)" d="m0 0h2l-1 5-5 5-5 6-1 5-4-1 2-6 9-12z" fill="#7D7D7D"/>
<path transform="translate(859,832)" d="m0 0h1v60h-10l4-3h5z" fill="#FEFEFE"/>
<path transform="translate(813,372)" d="m0 0 3 3 10 14-1 2-2-1-1 2-11-15z" fill="#ADADAD"/>
<path transform="translate(241,479)" d="m0 0h3v21l-2 3-1-13-5-8z" fill="#FEFEFE"/>
<path transform="translate(401,98)" d="m0 0 3 1-4 4-17 9h-2l2-4 7-5z" fill="#757575"/>
<path transform="translate(486,888)" d="m0 0 3 1v3l3 1v1h-21l2-5h6l1 2 4 1z" fill="#B8B8B8"/>
<path transform="translate(653,77)" d="m0 0 9 1 8 2 2-1 2 5-5 1-8-3-10-3z" fill="#6F6F6F"/>
<path transform="translate(969,276)" d="m0 0 4 1 10 7 1 4h-4l-12-9z" fill="#979797"/>
<path transform="translate(316,216)" d="m0 0 15 2-4 3-5 4-3 4-2-9z" fill="#FEFEFE"/>
<path transform="translate(266,184)" d="m0 0h2l-2 4-13 9h-5l1-3 6-4 5-3 5-2z" fill="#838383"/>
<path transform="translate(162,257)" d="m0 0m-4 1 4 1-2 4-13 9v-3l3-5z" fill="#8F8F8F"/>
<path transform="translate(343,131)" d="m0 0 2 1-5 5-14 9h-3l1-3 11-7z" fill="#767676"/>
<path transform="translate(594,888)" d="m0 0 4 2 1 2h6v-4l4 1 2 5h-21l1-2h2z" fill="#B2B2B2"/>
<path transform="translate(285,386)" d="m0 0 2 3-9 11-4 1-3 2 2-4 9-11z" fill="#A0A0A0"/>
<path transform="translate(386,889)" d="m0 0h4l1 2 6 1v-3l5 1 1 4h-18z" fill="#D3D3D3"/>
<path transform="translate(189,489)" d="m0 0 7 6 11-3-2 4-6 3-6-1-5-6z" fill="#767676"/>
<path transform="translate(803,361)" d="m0 0 5 1 5 8v5h-3l-7-11z" fill="#989898"/>
<path transform="translate(254,189)" d="m0 0 2 1-5 4-28 20-2-1 13-10z" fill="#FEFEFE"/>
<path transform="translate(292,163)" d="m0 0h7l-2 1v2l-4 1v4l-7 3-1 2-2-1 1-4 3-1 2-5z" fill="#818181"/>
<path transform="translate(245,883)" d="m0 0h2l1 17-1 9-2-1-1-15z" fill="#6A6A6A"/>
<path transform="translate(244,449)" d="m0 0h1v20l-2 7-9 3 3-3 4-3z" fill="#E8E8E8"/>
<path transform="translate(915,237)" d="m0 0 5 2 11 8 2 1-1 3-5-2-12-9z" fill="#868686"/>
<path transform="translate(333,889)" d="m0 0h4l1 3 5-1 1-2 4 1 1 4-5 1-13-1z" fill="#D8D8D8"/>
<path transform="translate(81,358)" d="m0 0 5 1 4 5 2 5 1 2-6-2-6-8z" fill="#888"/>
<path transform="translate(219,214)" d="m0 0 2 1-4 5h-3l-2 4-5 5v-2l-4 2-3-1 18-13z" fill="#BFBFBF"/>
<path transform="translate(307,153)" d="m0 0 2 1-3 4-1 3-6 5h-2v-2l-3-2z" fill="#B4B4B4"/>
<path transform="translate(1031,324)" d="m0 0 4 2 6 4 2 4-7 9-1-2 3-9-7-7z" fill="#FEFEFE"/>
<path transform="translate(915,489)" d="m0 0v3l-4 4-6-1-8-4 3-1 11 1z" fill="#FEFEFE"/>
<path transform="translate(1041,328)" d="m0 0 4 2 2 3-3 7-5 1 1-4 2-5z" fill="#858585"/>
<path transform="translate(658,888)" d="m0 0 5 1 1 6-1 1h-8v-3h2z" fill="#DBDBDB"/>
<path transform="translate(669,888)" d="m0 0 5 1 1 6-2 1h-7l-1-3h4z" fill="#DADADA"/>
<path transform="translate(360,120)" d="m0 0 1 2-5 3-1 3-11 6v-4l11-7z" fill="#7F7F7F"/>
<path transform="translate(862,603)" d="m0 0h1v16l-3 1v-16z" fill="#7C7C7C"/>
<path transform="translate(243,475)" d="m0 0 1 4-13 6-4-1h2l1-2 2-1 2 1 2-4z" fill="#767676"/>
<path transform="translate(692,888)" d="m0 0 3 1 1 4 2 1-4 2-5-1 1-6z" fill="#D6D6D6"/>
<path transform="translate(681,888)" d="m0 0 3 1 2 6-8 1-1-4z" fill="#D2D2D2"/>
<path transform="translate(954,444)" d="m0 0 2 2-7 9-5 5 1-5 1-3 5-4z" fill="#696969"/>
<path transform="translate(410,888)" d="m0 0 3 2v2l3 1v2l-9 1-2-1v-3h4z" fill="#CFCFCF"/>
<path transform="translate(984,287)" d="m0 0 5 2 7 6-2 3-11-8z" fill="#8D8D8D"/>
<path transform="translate(638,888)" d="m0 0 3 1 2 6-5 1h-4v-5l3 1z" fill="#D3D3D3"/>
<path transform="translate(626,889)" d="m0 0h4l1 7h-6l-2 1-1-4zm-1 3 1 2z" fill="#D4D4D4"/>
<path transform="translate(883,485)" d="m0 0 6 1 8 3-3 4-13-6z" fill="#9A9A9A"/>
<path transform="translate(232,479)" d="m0 0 3 1-1 2-5 2-3 3-7 2 1-4z" fill="#939393"/>
<path transform="translate(723,888)" d="m0 0h4l1 5 2 1-5 2-4-1v-3h2z" fill="#D7D7D7"/>
<path transform="translate(790,889)" d="m0 0 3 1v2h2l1 3-9 1-2-4h4z" fill="#E5E5E5"/>
<path transform="translate(996,295)" d="m0 0 11 7 1 4-5-2-8-6z" fill="#838383"/>
<path transform="translate(822,389)" d="m0 0 5 2 7 9-1 2-5-5-4-2z" fill="#8C8C8C"/>
<path transform="translate(470,35)" d="m0 0m-4 1 4 1-14 14v-3z" fill="#B0B0B0"/>
<path transform="translate(529,888)" d="m0 0 4 1v2l3 3h-15l2-2 5-1z" fill="#A7A7A7"/>
<path transform="translate(1028,355)" d="m0 0 1 2-10 13h-1v-5h2l2-4z" fill="#808080"/>
<path transform="translate(680,213)" d="m0 0h9l1 3h-21v-1l10-1z" fill="#ACACAC"/>
<path transform="translate(414,92)" d="m0 0 2 1v3l-11 5h-2l1-4z" fill="#868686"/>
<path transform="translate(672,79)" d="m0 0 8 5 2 1-2 4-8-3 1-3-2-2z" fill="#A6A6A6"/>
<path transform="translate(767,888)" d="m0 0 4 2 5 3v1h-11l1-5z" fill="#BFBFBF"/>
<path transform="translate(647,889)" d="m0 0 5 1 1 5-7 1-1-4z" fill="#D4D4D4"/>
<path transform="translate(187,485)" d="m0 0 7 6 1 1 12-1-4 3-7 2-9-9z" fill="#FAFAFA"/>
<path transform="translate(977,417)" d="m0 0v3l-5 7-2-2zm-8 9m-1 1m-1 1m-2 1 2 1-7 7v-3z" fill="#737373"/>
<path transform="translate(182,243)" d="m0 0h2l-2 4-11 8v-3l6-5 3-3z" fill="#6C6C6C"/>
<path transform="translate(615,888)" d="m0 0 3 1 2 6-1 1h-6l1-6z" fill="#D5D5D5"/>
<path transform="translate(311,204)" d="m0 0 4 5 14 3v1h-14v-2l-4-2z" fill="#FAFAFA"/>
<path transform="translate(378,888)" d="m0 0 3 2v2l3 1v1h-11l1-4h3z" fill="#DADADA"/>
<path transform="translate(250,434)" d="m0 0 1 2-2 14-2-2 1-3-3 1 1-7 2-1z" fill="#888"/>
<path transform="translate(190,235)" d="m0 0 2 1-12 9h-2l-2 4-4-1 14-10z" fill="#DADADA"/>
<path transform="translate(817,166)" d="m0 0 3 1v4l-4 1-1 3h-4l2-5h2v-3z" fill="#717171"/>
<path transform="translate(367,116)" d="m0 0 2 1-5 5-6 4-3-1 4-3h2v-3z" fill="#727272"/>
<path transform="translate(204,227)" d="m0 0h3l-2 4-3 1h-2l-6 3-2-1 7-5z" fill="#959595"/>
<path transform="translate(268,181)" d="m0 0 2 1v3l-2 1v-2l-4 3-8 2 4-4z" fill="#BEBEBE"/>
<path transform="translate(756,888)" d="m0 0 4 1 2 5h-9v-2l2-1z" fill="#CBCBCB"/>
<path transform="translate(894,490)" d="m0 0 5 1 6 3v3l-9-3z" fill="#818181"/>
<path transform="translate(103,298)" d="m0 0h2l-2 4-4 6h-2v-3l-2-1z" fill="#B7B7B7"/>
<path transform="translate(791,148)" d="m0 0 5 2 7 5-4 1-4-2-5-5z" fill="#A6A6A6"/>
<path transform="translate(862,578)" d="m0 0h1v11l-3 1v-11z" fill="#848484"/>
<path transform="translate(1037,325)" d="m0 0 5 1 6 5-1 5-1-4-5-4-1 2-4-4z" fill="#C3C3C3"/>
<path transform="translate(906,230)" d="m0 0 7 4 2 2v3l-4-2-6-4z" fill="#8C8C8C"/>
<path transform="translate(312,151)" d="m0 0h4v2l-11 7 2-5z" fill="#747474"/>
<path transform="translate(461,75)" d="m0 0h12l-1 2-13 1-1-2z" fill="#6E6E6E"/>
<path transform="translate(582,889)" d="m0 0 5 1v4h-9v-2l3-1z" fill="#B8B8B8"/>
<path transform="translate(124,284)" d="m0 0h5l-5 5-6 4 2-5z" fill="#7C7C7C"/>
<path transform="translate(147,266)" d="m0 0 2 1-4 7-3 1-3-3z" fill="#9F9F9F"/>
<path transform="translate(654,56)" d="m0 0 3 1 3 4-1 4h-2l-4-6z" fill="#7F7F7F"/>
<path transform="translate(860,900)" d="m0 0h1v8h2v4h-10l3-2h4z" fill="#767676"/>
<path transform="translate(464,889)" d="m0 0h3l2 5h-9l2-4z" fill="#B5B5B5"/>
<path transform="translate(275,399)" d="m0 0h2l-2 5-6 4-3 1 2-4z" fill="#8C8C8C"/>
<path transform="translate(645,75)" d="m0 0 9 1-3 3h-6l-3-3z" fill="#7D7D7D"/>
<path transform="translate(639,36)" d="m0 0 4 2 8 9-1 2-11-11z" fill="#FEFEFE"/>
<path transform="translate(561,888)" d="m0 0 4 2 3 4h-9z" fill="#B9B9B9"/>
<path transform="translate(1038,340)" d="m0 0 4 1-2 4-5 2-2-1 1-3z" fill="#989898"/>
<path transform="translate(778,889)" d="m0 0 5 1 1 3-1 1h-6z" fill="#C6C6C6"/>
<path transform="translate(353,889)" d="m0 0h6l3 4h-10z" fill="#FEFEFE"/>
<path transform="translate(925,244)" d="m0 0 5 2 3 2-1 3-5-2-3-4z" fill="#777"/>
<path transform="translate(495,889)" d="m0 0h4l1 5h-7l-1-2z" fill="#B8B8B8"/>
<path transform="translate(962,271)" d="m0 0 4 1 4 4-3 2-4-3z" fill="#7D7D7D"/>
<path transform="translate(660,61)" d="m0 0 4 4-1 5-3-1-2-4z" fill="#AEAEAE"/>
<path transform="translate(271,405)" d="m0 0 1 2-6 7-1-2-2-1z" fill="#727272"/>
<path transform="translate(1006,382)" d="m0 0v3l-6 8h-2l1-4z" fill="#717171"/>
<path transform="translate(247,196)" d="m0 0 4 2-7 5-1-4z" fill="#8C8C8C"/>
<path transform="translate(289,171)" d="m0 0h2l4 7-1 2-5-5-4-1z" fill="#FEFEFE"/>
<path transform="translate(383,107)" d="m0 0m-2 1 2 1-2 4-7 3 3-6z" fill="#7D7D7D"/>
<path transform="translate(681,87)" d="m0 0 5 1 4 3-5 1-5-3z" fill="#6E6E6E"/>
<path transform="translate(318,898)" d="m0 0" fill="#FEFEFE"/>
<path transform="translate(687,894)" d="m0 0" fill="#FEFEFE"/>
<path transform="translate(437,892)" d="m0 0" fill="#FEFEFE"/>
<path transform="translate(650,889)" d="m0 0" fill="#FEFEFE"/>
<path transform="translate(654,70)" d="m0 0" fill="#FEFEFE"/>
</svg>
