<?xml version="1.0" encoding="UTF-8"?>
<svg version="1.1" viewBox="0 0 1024 1020" width="256" height="255" xmlns="http://www.w3.org/2000/svg">
<path transform="translate(434,93)" d="m0 0h149l8 3 16 16 9 11 10 13 3 9 4 3 22 9 40 21 25 15 17 11 28 19 23 16 15 10 18 13 19 13 19 14 17 12 19 14 14 10 57 42 16 12 22 16-1 5-9 11-12 14-8 10-14 17-9 11-10 13-13 16-9 11-13 16-14 17-9 11-12 14-2 3-7-1-20-9-19-8-1-1-1 6-1 57v328l-1 41-1 1h-617l-2-6-1-427-31 13-11 5-5 1-5-4-11-14-13-16-10-13-12-14-16-20-11-13-11-14-11-13-11-14-14-17-10-13 2-4 9-8 28-21 19-14 16-12 19-14 17-12 18-13 14-10 11-8 17-12 16-12 16-11 17-12 11-7 18-12 13-9 15-10 19-12 24-14 36-18 18-8 2-6 8-11 11-13 9-11 5-6 7-5zm74 5-75 1 1 10 7 19 4 8 2 2h93l33-1 6-12 6-19v-6l-1-1zm-82 7-9 9-9 11-12 15-1 7 5 26 8 31 12 38 6 16 3 6 4 1 17-9 28-17 12-7 2-3-5-5-8-10-8-14-8-16-14-29-13-31-7-18zm165 0-12 29-9 20-14 30-13 25-10 13-2 4-3 1-1 4 16 9 41 24 5 2 5-10 12-36 8-28 6-24 4-24-4-8-12-14-9-11zm-142 38 1 5 14 30 8 17 11 18 10 10 14 10 6-1 10-6 6-5 10-13 9-16 12-24 10-23v-2h-50v9l-4 8-2 2h-8l-5-4-2-5-1-9-1-1zm64 1 1 9h1v-9zm-124 7-28 13-23 11-18 10-19 12-15 10-19 13-14 10-2 4 13 27 7 19 8 30 3 22v21l-3 21-3 14-8 22-12 23-8 12-9 12-10 13-13 16-6 10-3 6-3 18-1 14v62l1 360h103l8-1 4 1 2-1 9 1h34l4-1 1 1h26l4-1 2 1h90l1-1v-663l1-38 2-9 6-9-1-4-6 2-24 14-15 9-21 12-7 1-4-8-13-38-10-36-7-29-1-7zm239 0-9 37-12 42-9 26-7 14-6-1-15-8-17-10-15-9-14-9-7 1-2 1 1 4 4 4h2l1 9-4 6-3 2h-9l-8-7-2 4-1 14v288h1l2-9 7-5h11l4 4 1 2v7l-5 6-2 1h-9l-7-2-2 1-1-4v183l1 6h19l4 4 2 6-3 6-3 2h-20v188l1 1h83l5-1 4 2h3v-3l6 2v4l-24 1v1l9 1-3 1-14 1-43 3-23-1-1-2 6 1h11l-1-5-18-1v11l1 1 84 2h172l46-1 9-2 3-10-1-1-61-1h-60l-3 1 1-4 6-1 5 1 3-1 3 1h7 4 91l8-3 1-57v-196l-1-170-3-26-4-11-11-14-11-13-12-16-10-15-8-14-9-21-6-21-3-17-1-12v-13l2-23 6-26 8-23 9-19 7-13-15-11-23-15-15-10-18-11-28-16-23-11-17-8zm144 85-10 18-8 20-6 18-5 21-2 21v13l2 22 6 25 6 16 8 16 12 19 10 13 9 10 12 15 8 14 3 11 2 24 2 7 19 9 4-1 10-11 9-11 14-17 10-13 11-14 14-18 12-14 9-11 11-13 9-11 8-9 8-11 8-10-2-4-16-12-36-26-19-14-18-13-11-8-54-39-23-16-19-13-5-3zm-529 1-14 9-16 11-17 12-36 26-19 13-16 12-14 10-19 14-16 12-18 13-16 12 2 5 12 16 9 10 9 11 14 17 9 11 12 14 10 13 12 15 7 9 9 11 11 13 13 17 4 5 6-1 16-7 2-3 2-26 4-14 6-10 10-13 11-13 12-16 12-20 8-16 7-19 5-22 1-8v-37l-3-19-7-24-8-21-9-17-3-5zm267 6-3 6 3 5 3 1 2-1 1-8-3-3zm469 141-1 6-7 6-13 17-12 14-8 10-18 22-10 12-7 9-11 13-7 9-11 13-10 13-10 12-7 8 1 3 15 8h5l12-14 9-11 11-14 11-13 9-12 12-14 9-11 11-14 11-13 7-9 11-13 10-13 6-9-2-4-14-11zm-944 2-15 11 6 8 11 14 13 16 8 10 2 3h2l2 4 14 17 13 17 9 10 10 13 11 14 11 13 12 14 7 8h5l16-8-6-8-10-13-13-16-24-30-12-14-8-10-12-14-8-10-13-15-10-13-11-14-6-7zm163 158m130 413v2l-10-1-3 1h-7l-2-1v2h-11l-13 2 3 3h4l-1 1h-12l-10 2 2 2 10 2 33 2h137l41-1 3-1v-12l-1-1h-106l-3-1-9 1-1-2v2l-16-1h-20l-7 1zm225 4m4 0 2 2 1-2zm6 0v2l4 1 6-1-2-2z" fill="#9D979D"/>
<path transform="translate(323,366)" d="m0 0h124l24 1 1 1-1 45-2 10-1 85-12 6-34 13-23 9-8 1-15-5-55-22-3-3-1-77-2-34v-28l1-1zm-2 5-1 1v38l2 4 9 3 43 6 12 2h15l40-6 23-4 2-3v-40l-1-1zm2 48v84l3 3 23 10 39 15 6 1 13-4 28-11 24-10 5-5 1-82-2-1-17 3-42 6-6 1h-10l-53-8z" fill="#9D979D"/>
<path transform="translate(553,366)" d="m0 0h113l37 1 1 4-1 45-1 2-2 89-1 2-26 11-31 12-12 5h-8l-44-17-25-10-3-4-1-89-1-13v-37zm0 5-1 1v38l1 4 11 3 53 8h18l57-9 5-2 2-7v-35l-1-1zm2 48v84l4 4 39 16 21 8 4 1h7l28-11 35-14 3-3 1-79-1-5-27 3-17 3-27 3-26-3-37-6z" fill="#9D979D"/>
<path transform="translate(253,958)" d="m0 0 30 1 12 1v1l-9 1-2 1 5 2-1 2h-12l-8 2 10 2v1h-74l-1-2 1-11z" fill="#FEFEFE"/>
<path transform="translate(498,959)" d="m0 0h94l-1 2-8 1v3l-17 1-43 3-23-1-1-3h15l2 1-1-5h-17zm55 2m4 0 2 2 1-2zm6 0v2l4 1 6-1-2-2z" fill="#FEFEFE"/>
<path transform="translate(507,340)" d="m0 0h9l6 4 2 4v6l-6 8-3 1h-7l-6-4-3-4-1-7 4-5z" fill="#9F9A9F"/>
<path transform="translate(506,544)" d="m0 0h11l5 5 1 2v7l-6 7-2 1h-9l-4-4-2-7v-7z" fill="#9D979D"/>
<path transform="translate(507,645)" d="m0 0h9l6 5 1 2v8l-5 6-2 1h-9l-7-4-2-3v-7l4-5zm3 7-2 2v6l3 3 4-2 1-4-7 2v-4h2l1 2 1-5z" fill="#A19CA1"/>
<path transform="translate(506,748)" d="m0 0h10l5 5 2 6-3 6-4 3h-11l-3-4-1-9 2-6z" fill="#9D979D"/>
<path transform="translate(511,441)" d="m0 0 7 2 5 6v8l-5 6-2 1h-8l-6-4-3-3v-8l7-6zm-1 6-3 4 1 7 1 1 7-1 1-6-3-5z" fill="#A29CA2"/>
<path transform="translate(389,384)" d="m0 0h8l5 3 3 6v7l-5 6-4 2-8-1-5-6-1-2v-7l4-6zm3 6-5 3v6l4 4 7-1 2-3-1-6-2-2z" fill="#9D979D"/>
<path transform="translate(623,384)" d="m0 0 8 1 4 4 2 4v7l-4 5-6 3-8-2-4-5-1-7 4-7zm0 6-3 1-1 2v7l5 3 5-1 3-3v-5l-3-3z" fill="#9D979D"/>
<path transform="translate(511,751)" d="m0 0 6 1 2 4v5l-3 3h-9l-2-3v-6z" fill="#FEFEFE"/>
<path transform="translate(510,548)" d="m0 0h6l3 4v5l-5 4h-6l-2-2v-7z" fill="#FEFEFE"/>
<path transform="translate(511,344)" d="m0 0 4 1 3 3 1 4-2 5-8 1-3-3v-6z" fill="#FEFEFE"/>
<path transform="translate(365,954)" d="m0 0 4 1 3 1v3h-33l-1-3 1-1h25z" fill="#9D979D"/>
<path transform="translate(611,954)" d="m0 0h8l3 3 2-3h5l2 2v4h-10l-8 1-3-1z" fill="#BCB8BC"/>
<path transform="translate(498,748)" d="m0 0h8l-3 1-1 11 2 7h-8l1-18z" fill="#FEFEFE"/>
<path transform="translate(649,953)" d="m0 0 3 2 1 5h-13l-4 1-3-2 1-4 1-1h5l3 1z" fill="#A8A2A8"/>
<path transform="translate(511,649)" d="m0 0 5 1 3 3v6l-4 4-2-1 3-5-7 2v-4h3l1-3-4 2v8h-2l-1-7 2-4z" fill="#FEFEFE"/>
<path transform="translate(790,959)" d="m0 0h25v13h-8l2-1 1-7 1-3-21-1z" fill="#FEFEFE"/>
<path transform="translate(667,954)" d="m0 0h4 2v2l11-1v4l-5 1h-13l-2-4z" fill="#A8A3A8"/>
<path transform="translate(499,549)" d="m0 0h1l3 15h-6l-1-5 2-9z" fill="#FEFEFE"/>
<path transform="translate(656,954)" d="m0 0h5l3 3-1 3h-8l-1-3z" fill="#B1ACB1"/>
<path transform="translate(624,954)" d="m0 0h5l2 2v4h-8l-2-2z" fill="#B1ACB1"/>
<path transform="translate(604,954)" d="m0 0 4 1 1 4-3 2-5-1 1-5z" fill="#B2ADB2"/>
<path transform="translate(330,955)" d="m0 0h6l3 3-8 2-2-1z" fill="#A5A0A5"/>
<path transform="translate(504,962)" d="m0 0 3 1z" fill="#FEFEFE"/>
<path transform="translate(505,964)" d="m0 0 2 1z" fill="#FEFEFE"/>
<path transform="translate(498,963)" d="m0 0" fill="#FEFEFE"/>
<path transform="translate(509,962)" d="m0 0 2 1z" fill="#FEFEFE"/>
<path transform="translate(513,452)" d="m0 0" fill="#FEFEFE"/>
<path transform="translate(513,970)" d="m0 0" fill="#FEFEFE"/>
<path transform="translate(508,969)" d="m0 0" fill="#FEFEFE"/>
</svg>
